# xmcd
#
# Track frame offsets: 
#        150
#        14919
#        29072
#        43698
#        63523
#        77537
#        94268
#        118629
#        131956
#        149283
#        169984
#        200078
#        218398
#        238130
#        255319
#        271613
#        283979
#        301019
#        319767
#
# Disc length: 4573 seconds
#
# Revision: 1
# Processed by: cddbd v1.5.2PL0 Copyright (c) Steve Scherf et al.
# Submitted via: ExactAudioCopy v0.99pb5
#
DISCID=1d11db13
DTITLE=Jason Boland and The Stragglers - High In The Rockies: A Live Alb
DTITLE=um
DYEAR=2010
DGENRE=Country
TTITLE0=Hank
TTITLE1=No Reason Being Late
TTITLE2=Alright
TTITLE3=Comal County Blue
TTITLE4=Bourbon Legend
TTITLE5=Tulsa Time
TTITLE6=Backslider Blues
TTITLE7=Down Here On Earth
TTITLE8=No One Left To Blame
TTITLE9=Bottle By My Bed
TTITLE10=Gallo Del Cielo
TTITLE11=Blowing Through The Hills
TTITLE12=Time In Hell
TTITLE13=Jesus And Ruger
TTITLE14=Up And Gone
TTITLE15=Rainbow Stew
TTITLE16=The Party's Not Over
TTITLE17=If I Ever Get Back To Oklahoma
TTITLE18=Outlaw Band
EXTD=YEAR: 2010
EXTT0=
EXTT1=
EXTT2=
EXTT3=
EXTT4=
EXTT5=
EXTT6=
EXTT7=
EXTT8=
EXTT9=
EXTT10=
EXTT11=
EXTT12=
EXTT13=
EXTT14=
EXTT15=
EXTT16=
EXTT17=
EXTT18=
PLAYORDER=
